<svg width="447" height="653" viewBox="0 0 447 653" fill="none" xmlns="http://www.w3.org/2000/svg">
<path d="M278.893 236.317V235.651H167.172L111.12 332.737L167.172 429.824H279.279L335.332 332.737L279.277 235.651H278.893V236.317L278.316 236.651L333.792 332.737L278.508 428.491H167.943L112.659 332.737L167.943 236.984H278.893V236.317L278.316 236.651L278.893 236.317Z" fill="white"/>
<path d="M272.753 246.951V244.284H172.157L121.089 332.737L172.157 421.191H274.293L325.361 332.737L274.293 244.284H272.753V246.951L270.444 248.284L319.203 332.737L271.215 415.857H175.236L127.247 332.737L175.236 249.617H272.753V246.951L270.444 248.284L272.753 246.951Z" fill="white"/>
<path d="M117.333 386.172L95.0867 421.983L108.465 446.253L109.633 445.609L96.632 422.023L118.467 386.875L117.333 386.172Z" fill="white"/>
<path d="M119.765 367.847L83.048 426.951L95.2773 448.925L96.4413 448.277L84.5946 426.988L120.899 368.549L119.765 367.847Z" fill="white"/>
<path d="M121.076 386.524C121.076 388.277 119.653 389.699 117.9 389.699C116.145 389.699 114.724 388.277 114.724 386.524C114.724 384.769 116.145 383.348 117.9 383.348C119.653 383.348 121.076 384.769 121.076 386.524Z" fill="white"/>
<path d="M123.508 368.197C123.508 369.952 122.085 371.373 120.332 371.373C118.579 371.373 117.156 369.952 117.156 368.197C117.156 366.444 118.579 365.023 120.332 365.023C122.085 365.023 123.508 366.444 123.508 368.197Z" fill="white"/>
<path d="M140.261 415.395C140.261 417.148 138.84 418.571 137.085 418.571C135.332 418.571 133.911 417.148 133.911 415.395C133.911 413.64 135.332 412.217 137.085 412.217C138.84 412.217 140.261 413.64 140.261 415.395Z" fill="white"/>
<path d="M76.6866 525.51C76.6866 527.264 75.264 528.686 73.5107 528.686C71.756 528.686 70.3347 527.264 70.3347 525.51C70.3347 523.756 71.756 522.335 73.5107 522.335C75.264 522.335 76.6866 523.756 76.6866 525.51Z" fill="white"/>
<path d="M60.9787 569.922C60.9787 571.677 59.5573 573.098 57.8027 573.098C56.0493 573.098 54.6266 571.677 54.6266 569.922C54.6266 568.169 56.0493 566.748 57.8027 566.748C59.5573 566.748 60.9787 568.169 60.9787 569.922Z" fill="white"/>
<path d="M58.38 570.256L153.511 405.485L152.356 404.819L57.2253 569.589" fill="white"/>
<path d="M74.088 525.844L137.663 415.728L136.508 415.061L72.9333 525.177" fill="white"/>
<path d="M14.496 611.034L109.627 446.264L108.472 445.597L13.3413 610.368" fill="white"/>
<path d="M1.30532 613.705L96.4373 448.935L95.2827 448.268L0.150635 613.039" fill="white"/>
<path d="M229.796 450.808L209.94 487.109L183.009 487.395L183.024 488.728L210.735 488.435L230.967 451.448L229.796 450.808Z" fill="white"/>
<path d="M244.555 439.673L211.54 500.031L187.176 500.192L187.185 501.525L212.333 501.36L245.724 440.313L244.555 439.673Z" fill="white"/>
<path d="M228.819 448.361C227.292 449.225 226.753 451.163 227.617 452.691C228.48 454.217 230.417 454.755 231.944 453.892C233.472 453.028 234.011 451.091 233.147 449.565C232.284 448.037 230.347 447.499 228.819 448.361Z" fill="white"/>
<path d="M243.577 437.229C242.049 438.091 241.512 440.029 242.375 441.556C243.237 443.084 245.175 443.623 246.701 442.759C248.229 441.896 248.768 439.959 247.905 438.431C247.041 436.904 245.104 436.365 243.577 437.229Z" fill="white"/>
<path d="M194.245 445.863C192.717 446.727 192.18 448.664 193.041 450.192C193.905 451.719 195.843 452.256 197.369 451.393C198.897 450.529 199.435 448.592 198.573 447.067C197.709 445.539 195.772 445 194.245 445.863Z" fill="white"/>
<path d="M129.657 555.389C128.131 556.252 127.592 558.191 128.456 559.716C129.317 561.244 131.255 561.783 132.783 560.919C134.309 560.056 134.848 558.119 133.985 556.591C133.123 555.064 131.185 554.527 129.657 555.389Z" fill="white"/>
<path d="M100.857 594.02L197.501 430.132L196.353 429.455L99.708 593.343" fill="white"/>
<path d="M131.795 558.492L196.381 448.968L195.233 448.291L130.645 557.814" fill="white"/>
<path d="M86.9467 652.288L183.591 488.4L182.443 487.723L85.7986 651.61" fill="white"/>
<path d="M91.1107 665.085L187.755 501.197L186.607 500.52L89.9626 664.408" fill="white"/>
<path d="M329.18 279.349L351.427 243.539L338.048 219.268L336.88 219.912L349.883 243.499L328.047 278.647L329.18 279.349Z" fill="white"/>
<path d="M326.748 297.676L363.465 238.571L351.237 216.596L350.072 217.245L361.92 238.535L325.616 296.972L326.748 297.676Z" fill="white"/>
<path d="M325.437 278.999C325.437 277.244 326.86 275.823 328.613 275.823C330.368 275.823 331.791 277.244 331.791 278.999C331.791 280.752 330.368 282.175 328.613 282.175C326.86 282.175 325.437 280.752 325.437 278.999Z" fill="white"/>
<path d="M323.007 297.324C323.007 295.569 324.428 294.148 326.183 294.148C327.936 294.148 329.359 295.569 329.359 297.324C329.359 299.079 327.936 300.5 326.183 300.5C324.428 300.5 323.007 299.079 323.007 297.324Z" fill="white"/>
<path d="M306.251 250.127C306.251 248.373 307.673 246.951 309.427 246.951C311.183 246.951 312.604 248.373 312.604 250.127C312.604 251.881 311.183 253.304 309.427 253.304C307.673 253.304 306.251 251.881 306.251 250.127Z" fill="white"/>
<path d="M369.827 140.011C369.827 138.257 371.249 136.835 373.003 136.835C374.757 136.835 376.18 138.257 376.18 140.011C376.18 141.765 374.757 143.188 373.003 143.188C371.249 143.188 369.827 141.765 369.827 140.011Z" fill="white"/>
<path d="M385.535 95.5973C385.535 93.844 386.957 92.4214 388.711 92.4214C390.465 92.4214 391.887 93.844 391.887 95.5973C391.887 97.352 390.465 98.7733 388.711 98.7733C386.957 98.7733 385.535 97.352 385.535 95.5973Z" fill="white"/>
<path d="M388.133 95.264L293.004 260.036L294.159 260.703L389.288 95.9307" fill="white"/>
<path d="M372.425 139.677L308.849 249.793L310.004 250.46L373.58 140.344" fill="white"/>
<path d="M432.017 54.4866L336.887 219.257L338.041 219.924L433.172 55.1533" fill="white"/>
<path d="M445.208 51.816L350.077 216.587L351.232 217.253L446.363 52.4827" fill="white"/>
<path d="M216.716 214.713L236.573 178.411L263.504 178.127L263.491 176.793L235.779 177.087L215.547 214.073L216.716 214.713Z" fill="white"/>
<path d="M201.96 225.847L234.973 165.491L259.336 165.329L259.328 163.996L234.18 164.163L200.791 225.208L201.96 225.847Z" fill="white"/>
<path d="M217.695 217.159C219.221 216.296 219.76 214.359 218.897 212.832C218.033 211.305 216.096 210.767 214.569 211.629C213.041 212.492 212.504 214.429 213.367 215.957C214.231 217.484 216.168 218.023 217.695 217.159Z" fill="white"/>
<path d="M202.937 228.292C204.464 227.429 205.003 225.492 204.139 223.965C203.276 222.437 201.339 221.899 199.811 222.763C198.285 223.625 197.747 225.563 198.609 227.089C199.472 228.617 201.411 229.156 202.937 228.292Z" fill="white"/>
<path d="M131.773 278.587C133.301 277.724 133.839 275.785 132.975 274.259C132.113 272.732 130.176 272.193 128.648 273.056C127.121 273.919 126.583 275.857 127.445 277.384C128.308 278.912 130.247 279.449 131.773 278.587Z" fill="white"/>
<path d="M252.269 219.659C253.797 218.795 254.335 216.857 253.472 215.331C252.608 213.804 250.671 213.265 249.144 214.128C247.617 214.991 247.079 216.928 247.941 218.456C248.805 219.983 250.743 220.521 252.269 219.659Z" fill="white"/>
<path d="M316.857 110.132C318.383 109.269 318.921 107.332 318.059 105.805C317.195 104.277 315.257 103.739 313.731 104.603C312.204 105.465 311.665 107.403 312.528 108.929C313.392 110.457 315.329 110.995 316.857 110.132Z" fill="white"/>
<path d="M347.795 74.6067C349.321 73.7427 349.86 71.8054 348.996 70.2787C348.135 68.7507 346.195 68.2134 344.669 69.076C343.141 69.9387 342.603 71.876 343.467 73.404C344.329 74.9307 346.267 75.4694 347.795 74.6067Z" fill="white"/>
<path d="M345.657 71.5026L249.013 235.389L250.161 236.067L346.805 72.18" fill="white"/>
<path d="M314.72 107.028L250.133 216.555L251.281 217.232L315.868 107.705" fill="white"/>
<path d="M359.568 13.2346L262.923 177.121L264.072 177.799L360.716 13.912" fill="white"/>
<path d="M355.403 0.43602L258.757 164.324L259.907 165.001L356.551 1.11336" fill="white"/>
</svg>
