 <svg
      width="96"
      height="96"
      viewBox="0 0 96 96"
      fill="none"
      xmlns="http://www.w3.org/2000/svg"
    >
      <g clipPath="url(#clip0_101_1767)">
        <path
          d="M48.0013 55.4481L25.857 42.6633V22.7127C25.857 15.3403 31.8559 9.34132 39.2283 9.34132C42.5347 9.34132 45.6698 10.6 48.0869 12.7395L54.6536 8.9489C54.9542 8.77565 55.2652 8.63789 55.572 8.47925C51.4851 3.80575 45.5466 0.994141 39.2283 0.994141C27.2534 0.994141 17.5099 10.7377 17.5099 22.7148V47.485L39.6521 60.2719L48.0013 55.4481Z"
          fill="url(#paint0_linear_101_1767)"
        />
        <g filter="url(#filter0_bi_101_1767)">
          <path
            d="M41.5466 51.7247V26.153L58.8254 16.1798C65.2105 12.4936 73.4033 14.6873 77.0915 21.0724C78.7447 23.9362 79.2227 27.2801 78.5777 30.4424L85.1444 34.233C85.445 34.4062 85.7205 34.6066 86.0106 34.7924C88.0145 28.9166 87.4801 22.3666 84.322 16.8957C78.3335 6.52383 65.0248 2.9587 54.6508 8.94721L33.1974 21.3313V46.903L41.5466 51.7247Z"
            fill="#1D1D1D"
            fillOpacity="0.05"
          />
          <path
            d="M41.5466 51.7247V26.153L58.8254 16.1798C65.2105 12.4936 73.4033 14.6873 77.0915 21.0724C78.7447 23.9362 79.2227 27.2801 78.5777 30.4424L85.1444 34.233C85.445 34.4062 85.7205 34.6066 86.0106 34.7924C88.0145 28.9166 87.4801 22.3666 84.322 16.8957C78.3335 6.52383 65.0248 2.9587 54.6508 8.94721L33.1974 21.3313V46.903L41.5466 51.7247Z"
            fill="url(#paint1_linear_101_1767)"
            fillOpacity="0.2"
          />
          <path
            d="M41.0466 25.8643L41.2967 25.7199L58.5755 15.7467C65.1996 11.9225 73.6981 14.1981 77.5245 20.8224L77.5246 20.8225C79.1796 23.6896 79.6986 27.0163 79.1354 30.187L85.3941 33.7998L41.0466 25.8643ZM41.0466 25.8643V26.153M41.0466 25.8643V26.153M41.0466 26.153V50.8585M41.0466 26.153V50.8585M41.0466 50.8585L33.6974 46.6143V21.62L54.9008 9.38024C65.0357 3.52974 78.0386 7.01303 83.889 17.1457C86.8623 22.2964 87.4556 28.4307 85.738 34.0125C85.6245 33.9386 85.5086 33.8658 85.3944 33.7999L41.0466 50.8585Z"
            stroke="url(#paint2_linear_101_1767)"
            strokeOpacity="0.1"
          />
        </g>
        <path
          d="M41.5487 44.2728L63.693 31.4859L80.9697 41.4633C87.3548 45.1495 89.5507 53.3422 85.8645 59.7273C84.2114 62.5911 81.5542 64.6763 78.4921 65.6991V73.2802C78.4921 73.6288 78.4566 73.9669 78.4399 74.3114C84.5286 73.1091 89.9369 69.3707 93.095 63.9019C99.0835 53.53 95.5163 40.2213 85.1444 34.2328L63.693 21.8467L41.5466 34.6315L41.5487 44.2728Z"
          fill="url(#paint3_linear_101_1767)"
        />
        <g filter="url(#filter1_bi_101_1767)">
          <path
            d="M48.0003 40.5483L70.1446 53.3331V73.2857C70.1446 80.6581 64.1456 86.6571 56.7732 86.6571C53.4669 86.6571 50.3318 85.3984 47.9147 83.2589L41.348 87.0495C41.0474 87.2227 40.7364 87.3605 40.4296 87.5191C44.5165 92.1926 50.4549 95.0042 56.7732 95.0042C68.7482 95.0042 78.4918 85.2606 78.4918 73.2836V48.5135L56.3495 35.7266L48.0003 40.5483Z"
            fill="#1D1D1D"
            fillOpacity="0.05"
          />
          <path
            d="M48.0003 40.5483L70.1446 53.3331V73.2857C70.1446 80.6581 64.1456 86.6571 56.7732 86.6571C53.4669 86.6571 50.3318 85.3984 47.9147 83.2589L41.348 87.0495C41.0474 87.2227 40.7364 87.3605 40.4296 87.5191C44.5165 92.1926 50.4549 95.0042 56.7732 95.0042C68.7482 95.0042 78.4918 85.2606 78.4918 73.2836V48.5135L56.3495 35.7266L48.0003 40.5483Z"
            fill="url(#paint4_linear_101_1767)"
            fillOpacity="0.2"
          />
          <path
            d="M70.6446 53.3331V53.0444L70.3946 52.9001L49.0002 40.5482L56.3495 36.3039L77.9918 48.8021V73.2836C77.9918 84.9845 68.472 94.5042 56.7732 94.5042C50.8248 94.5042 45.217 91.9516 41.2417 87.6734C41.3626 87.6122 41.4837 87.5484 41.5977 87.4827L41.5979 87.4825L47.857 83.8695C50.3222 85.9424 53.463 87.1571 56.7732 87.1571C64.4218 87.1571 70.6446 80.9343 70.6446 73.2857V53.3331Z"
            stroke="url(#paint5_linear_101_1767)"
            strokeOpacity="0.1"
          />
        </g>
        <path
          d="M54.4513 44.2734V69.8431L37.1725 79.8162C30.7874 83.5024 22.5947 81.3087 18.9064 74.9236C17.2532 72.0598 16.7752 68.7159 17.4202 65.5536L10.8535 61.7631C10.553 61.5898 10.2774 61.3894 9.98729 61.2037C7.98347 67.0794 8.51782 73.6294 11.6759 79.1003C17.6644 89.4722 30.9731 93.0373 41.3471 87.0488L62.8005 74.6648V49.093L54.4513 44.2734Z"
          fill="url(#paint6_linear_101_1767)"
        />
        <g filter="url(#filter2_bi_101_1767)">
          <path
            d="M54.452 51.7246L32.3077 64.5115L15.031 54.5341C8.6459 50.8479 6.45004 42.6552 10.1362 36.2701C11.7894 33.4063 14.4465 31.3211 17.5086 30.2983V22.7172C17.5086 22.3686 17.5441 22.0304 17.5608 21.686C11.4721 22.8883 6.06389 26.6267 2.90578 32.0955C-3.08272 42.4673 0.484494 55.7761 10.8564 61.7646L32.3077 74.1507L54.4541 61.3659L54.452 51.7246Z"
            fill="#1D1D1D"
            fillOpacity="0.05"
          />
          <path
            d="M54.452 51.7246L32.3077 64.5115L15.031 54.5341C8.6459 50.8479 6.45004 42.6552 10.1362 36.2701C11.7894 33.4063 14.4465 31.3211 17.5086 30.2983V22.7172C17.5086 22.3686 17.5441 22.0304 17.5608 21.686C11.4721 22.8883 6.06389 26.6267 2.90578 32.0955C-3.08272 42.4673 0.484494 55.7761 10.8564 61.7646L32.3077 74.1507L54.4541 61.3659L54.452 51.7246Z"
            fill="url(#paint7_linear_101_1767)"
            fillOpacity="0.2"
          />
          <path
            d="M32.0576 64.9445L32.3076 65.0889L32.5577 64.9445L53.9522 52.5906L53.954 61.0772L32.3077 73.5734L11.1064 61.3316C0.973595 55.4811 -2.51161 42.4782 3.33879 32.3455C6.3119 27.1971 11.33 23.6157 17.021 22.3123C17.0138 22.4473 17.0086 22.5841 17.0086 22.7172V29.943C13.9802 31.0407 11.3583 33.1529 9.70321 36.0201C5.87895 42.6444 8.15679 51.1429 14.781 54.9671L32.0576 64.9445Z"
            stroke="url(#paint8_linear_101_1767)"
            strokeOpacity="0.1"
          />
        </g>
      </g>
      <defs>
        <filter
          id="filter0_bi_101_1767"
          x="30.1974"
          y="3.04102"
          width="59.9945"
          height="51.6836"
          filterUnits="userSpaceOnUse"
          colorInterpolationFilters="sRGB"
        >
          <feFlood floodOpacity="0" result="BackgroundImageFix" />
          <feGaussianBlur in="BackgroundImageFix" stdDeviation="1.5" />
          <feComposite
            in2="SourceAlpha"
            operator="in"
            result="effect1_backgroundBlur_101_1767"
          />
          <feBlend
            mode="normal"
            in="SourceGraphic"
            in2="effect1_backgroundBlur_101_1767"
            result="shape"
          />
          <feColorMatrix
            in="SourceAlpha"
            type="matrix"
            values="0 0 0 0 0 0 0 0 0 0 0 0 0 0 0 0 0 0 127 0"
            result="hardAlpha"
          />
          <feOffset dy="0.5" />
          <feGaussianBlur stdDeviation="1" />
          <feComposite in2="hardAlpha" operator="arithmetic" k2="-1" k3="1" />
          <feColorMatrix
            type="matrix"
            values="0 0 0 0 1 0 0 0 0 1 0 0 0 0 1 0 0 0 0.15 0"
          />
          <feBlend
            mode="normal"
            in2="shape"
            result="effect2_innerShadow_101_1767"
          />
        </filter>
        <filter
          id="filter1_bi_101_1767"
          x="37.4296"
          y="32.7266"
          width="44.0622"
          height="65.2777"
          filterUnits="userSpaceOnUse"
          colorInterpolationFilters="sRGB"
        >
          <feFlood floodOpacity="0" result="BackgroundImageFix" />
          <feGaussianBlur in="BackgroundImageFix" stdDeviation="1.5" />
          <feComposite
            in2="SourceAlpha"
            operator="in"
            result="effect1_backgroundBlur_101_1767"
          />
          <feBlend
            mode="normal"
            in="SourceGraphic"
            in2="effect1_backgroundBlur_101_1767"
            result="shape"
          />
          <feColorMatrix
            in="SourceAlpha"
            type="matrix"
            values="0 0 0 0 0 0 0 0 0 0 0 0 0 0 0 0 0 0 127 0"
            result="hardAlpha"
          />
          <feOffset dy="0.5" />
          <feGaussianBlur stdDeviation="1" />
          <feComposite in2="hardAlpha" operator="arithmetic" k2="-1" k3="1" />
          <feColorMatrix
            type="matrix"
            values="0 0 0 0 1 0 0 0 0 1 0 0 0 0 1 0 0 0 0.15 0"
          />
          <feBlend
            mode="normal"
            in2="shape"
            result="effect2_innerShadow_101_1767"
          />
        </filter>
        <filter
          id="filter2_bi_101_1767"
          x="-2.99988"
          y="18.686"
          width="60.4539"
          height="58.4647"
          filterUnits="userSpaceOnUse"
          colorInterpolationFilters="sRGB"
        >
          <feFlood floodOpacity="0" result="BackgroundImageFix" />
          <feGaussianBlur in="BackgroundImageFix" stdDeviation="1.5" />
          <feComposite
            in2="SourceAlpha"
            operator="in"
            result="effect1_backgroundBlur_101_1767"
          />
          <feBlend
            mode="normal"
            in="SourceGraphic"
            in2="effect1_backgroundBlur_101_1767"
            result="shape"
          />
          <feColorMatrix
            in="SourceAlpha"
            type="matrix"
            values="0 0 0 0 0 0 0 0 0 0 0 0 0 0 0 0 0 0 127 0"
            result="hardAlpha"
          />
          <feOffset dy="0.5" />
          <feGaussianBlur stdDeviation="1" />
          <feComposite in2="hardAlpha" operator="arithmetic" k2="-1" k3="1" />
          <feColorMatrix
            type="matrix"
            values="0 0 0 0 1 0 0 0 0 1 0 0 0 0 1 0 0 0 0.15 0"
          />
          <feBlend
            mode="normal"
            in2="shape"
            result="effect2_innerShadow_101_1767"
          />
        </filter>
        <linearGradient
          id="paint0_linear_101_1767"
          x1="17.5099"
          y1="0.994141"
          x2="64.0009"
          y2="8.57406"
          gradientUnits="userSpaceOnUse"
        >
          <stop stopColor="#75A5FF" />
          <stop offset="0.703125" stopColor="#2339FF" />
        </linearGradient>
        <linearGradient
          id="paint1_linear_101_1767"
          x1="33.1974"
          y1="6.04102"
          x2="95.308"
          y2="24.6811"
          gradientUnits="userSpaceOnUse"
        >
          <stop stopColor="#87FFE1" />
          <stop offset="0.776042" stopColor="#5C6DFF" />
        </linearGradient>
        <linearGradient
          id="paint2_linear_101_1767"
          x1="34.8847"
          y1="8.11755"
          x2="87.1919"
          y2="8.11755"
          gradientUnits="userSpaceOnUse"
        >
          <stop stopColor="#3CDEB6" />
          <stop offset="0.65625" stopColor="#364AFF" />
        </linearGradient>
        <linearGradient
          id="paint3_linear_101_1767"
          x1="41.5466"
          y1="21.8467"
          x2="105.393"
          y2="38.6732"
          gradientUnits="userSpaceOnUse"
        >
          <stop stopColor="#75A5FF" />
          <stop offset="0.703125" stopColor="#2339FF" />
        </linearGradient>
        <linearGradient
          id="paint4_linear_101_1767"
          x1="40.4296"
          y1="35.7266"
          x2="86.9206"
          y2="43.3065"
          gradientUnits="userSpaceOnUse"
        >
          <stop stopColor="#87FFE1" />
          <stop offset="0.776042" stopColor="#5C6DFF" />
        </linearGradient>
        <linearGradient
          id="paint5_linear_101_1767"
          x1="41.619"
          y1="38.421"
          x2="78.4918"
          y2="38.421"
          gradientUnits="userSpaceOnUse"
        >
          <stop stopColor="#3CDEB6" />
          <stop offset="0.65625" stopColor="#364AFF" />
        </linearGradient>
        <linearGradient
          id="paint6_linear_101_1767"
          x1="8.80603"
          y1="44.2734"
          x2="70.9161"
          y2="62.9143"
          gradientUnits="userSpaceOnUse"
        >
          <stop stopColor="#75A5FF" />
          <stop offset="0.703125" stopColor="#2339FF" />
        </linearGradient>
        <linearGradient
          id="paint7_linear_101_1767"
          x1="0.00012207"
          y1="21.686"
          x2="63.8464"
          y2="38.5125"
          gradientUnits="userSpaceOnUse"
        >
          <stop stopColor="#87FFE1" />
          <stop offset="0.776042" stopColor="#5C6DFF" />
        </linearGradient>
        <linearGradient
          id="paint8_linear_101_1767"
          x1="1.70181"
          y1="24.0708"
          x2="54.4541"
          y2="24.0708"
          gradientUnits="userSpaceOnUse"
        >
          <stop stopColor="#3CDEB6" />
          <stop offset="0.65625" stopColor="#364AFF" />
        </linearGradient>
        <clipPath id="clip0_101_1767">
          <rect width="96" height="96" fill="white" />
        </clipPath>
      </defs>
    </svg>